<svg width="158" height="20" viewBox="0 0 158 20" fill="none" xmlns="http://www.w3.org/2000/svg">
<g clip-path="url(#clip0_151_1518)">
<path d="M67.3743 6.67705C66.4051 5.64215 65.12 5.12414 63.5189 5.12305C61.5477 5.12305 60.0692 5.92359 59.0836 7.52469C58.2195 5.92469 56.8358 5.12414 54.9325 5.12305C53.086 5.12305 51.6832 5.87651 50.7238 7.38342V5.49101H48.2598V19.6183H50.7238V11.7662C50.7238 10.3896 51.0579 9.33003 51.7259 8.58753C52.3939 7.84502 53.2651 7.47322 54.3394 7.47212C55.2626 7.47212 55.9926 7.77767 56.5292 8.38876C57.0658 8.99984 57.3341 9.84311 57.3341 10.9185V19.6249H59.7982V11.7727C59.7982 10.36 60.1043 9.29115 60.7164 8.56617C61.3286 7.84119 62.1806 7.4787 63.2725 7.4787C64.2329 7.4787 64.9908 7.78424 65.546 8.39532C66.1012 9.00641 66.3794 9.84967 66.3805 10.9251V19.6315H68.8446V10.8298C68.8347 9.09731 68.3446 7.71306 67.3743 6.67705Z" fill="white"/>
<path d="M82.7505 7.27051C82.0547 6.5625 81.2196 6.0065 80.298 5.63765C79.3959 5.28766 78.4352 5.11314 77.4676 5.12348C75.377 5.12348 73.6166 5.83916 72.1863 7.27051C70.8604 8.57282 70.0944 10.3407 70.0508 12.1986C70.0508 12.3153 70.0508 12.4319 70.0508 12.5518C70.0508 14.6414 70.7664 16.4023 72.1978 17.8348C73.6291 19.2672 75.3896 19.9829 77.4791 19.9818C79.5708 19.9818 81.3318 19.2661 82.762 17.8348C84.1564 16.4301 84.9389 14.5311 84.9389 12.5518C84.9389 10.5726 84.1564 8.67357 82.762 7.26886L82.7505 7.27051ZM81.0273 16.1411C80.079 17.0659 78.8069 17.5835 77.4824 17.5835C76.1578 17.5835 74.8857 17.0659 73.9374 16.1411C72.9781 15.1818 72.4984 13.9865 72.4984 12.5551C72.4876 11.7873 72.6487 11.0268 72.9699 10.3292C73.2114 9.82236 73.5387 9.36108 73.9374 8.96578C74.3816 8.51218 74.9115 8.15148 75.4965 7.90471C76.0814 7.65794 76.7096 7.53002 77.3444 7.52841H77.4676C78.1283 7.51162 78.7855 7.63034 79.3986 7.87727C80.0116 8.12419 80.5676 8.49409 81.0323 8.96414C81.9938 9.92677 82.474 11.1232 82.4729 12.5535C82.4718 13.9837 81.9916 15.1791 81.0323 16.1395L81.0273 16.1411Z" fill="white"/>
<path d="M97.296 6.69249C96.2973 5.64553 94.9694 5.1226 93.3124 5.1237C91.2415 5.1237 89.7166 5.92425 88.7375 7.52534V0.238281L86.2734 1.81036V19.6157H88.7375V12.1364C88.7375 10.5923 89.1022 9.43089 89.8398 8.64732C90.5773 7.86374 91.5695 7.47606 92.8328 7.47606C93.9279 7.47606 94.7849 7.79584 95.4036 8.4354C96.0224 9.07496 96.3334 9.96039 96.3367 11.0917V19.6223H98.8008V10.9488C98.7975 9.15601 98.2959 7.73725 97.296 6.69249Z" fill="white"/>
<path d="M103.646 0.496194C103.498 0.338147 103.318 0.212704 103.119 0.127857C102.919 0.0430102 102.705 0.000618908 102.488 0.00338055C102.266 -0.00189793 102.046 0.0392224 101.842 0.124097C101.637 0.208972 101.453 0.335722 101.3 0.496194C101.146 0.649341 101.024 0.831932 100.941 1.03313C100.859 1.23433 100.818 1.45004 100.821 1.66744C100.817 1.88303 100.858 2.09706 100.94 2.29626C101.023 2.49547 101.145 2.67562 101.3 2.82556C101.455 2.98274 101.64 3.10656 101.844 3.18935C102.048 3.27213 102.268 3.31213 102.488 3.30687C102.924 3.30687 103.341 3.1338 103.649 2.82573C103.957 2.51766 104.131 2.09983 104.131 1.66416C104.132 1.44701 104.089 1.23183 104.006 1.03125C103.923 0.83068 103.8 0.648766 103.646 0.496194ZM101.239 5.49167V19.619H103.703V5.49167H101.239Z" fill="white"/>
<path d="M108.468 7.86467V5.49095H106.004V19.6183H108.468V12.1357C108.468 10.5916 108.901 9.47123 109.767 8.77472C110.644 8.07388 111.754 7.7306 112.874 7.81374V5.23633C110.747 5.23633 109.278 6.11244 108.468 7.86467Z" fill="white"/>
<path d="M125.248 1.80019V7.91929C124.069 6.09369 122.338 5.16281 120.056 5.12667H119.91C118.961 5.11386 118.021 5.30107 117.149 5.6761C116.278 6.05114 115.496 6.60558 114.853 7.30327C114.265 7.90665 113.783 8.60471 113.427 9.36816C112.979 10.3695 112.755 11.4565 112.77 12.5534C112.77 14.6243 113.467 16.3853 114.861 17.8363C115.506 18.5289 116.29 19.078 117.161 19.4479C118.032 19.8178 118.971 20.0002 119.918 19.9834C122.273 19.9834 124.053 19.0525 125.257 17.1907V19.6203H127.721V0.236328L125.248 1.80019ZM123.808 16.169C122.846 17.1283 121.65 17.608 120.22 17.608C119.56 17.6236 118.904 17.504 118.292 17.2566C117.68 17.0091 117.125 16.639 116.662 16.169C116.193 15.6929 115.824 15.1281 115.576 14.5075C115.329 13.8869 115.207 13.2231 115.22 12.555C115.22 11.1226 115.7 9.92613 116.662 8.96569C117.613 8.02492 118.897 7.49727 120.235 7.49727C121.573 7.49727 122.856 8.02492 123.808 8.96569C124.768 9.92832 125.248 11.1248 125.248 12.555C125.261 13.2229 125.139 13.8866 124.892 14.5071C124.645 15.1277 124.276 15.6926 123.808 16.169Z" fill="white"/>
<path d="M143.633 12.5836C143.633 10.5105 142.976 8.75824 141.661 7.32689C140.363 5.85831 138.677 5.12402 136.604 5.12402C134.421 5.12402 132.641 5.82984 131.265 7.24148C129.888 8.65311 129.201 10.424 129.203 12.554C129.203 14.6819 129.9 16.4615 131.294 17.8928C132.718 19.2858 134.544 19.9829 136.773 19.984C139.525 19.984 141.597 18.9195 142.989 16.7906L140.898 15.6045C140.051 16.9789 138.696 17.6667 136.832 17.6678C135.475 17.6678 134.345 17.314 133.441 16.6066C132.538 15.8991 131.963 14.9244 131.718 13.6825H143.546C143.602 13.3189 143.631 12.9515 143.633 12.5836ZM131.712 11.5355C131.919 10.275 132.46 9.27734 133.336 8.5425C134.212 7.80766 135.299 7.44024 136.597 7.44024C137.694 7.41528 138.762 7.79807 139.593 8.51458C140.421 9.2308 140.939 10.2378 141.146 11.5355H131.712Z" fill="white"/>
<path d="M154.485 5.49219L150.05 16.9912L145.615 5.49219H142.965L148.614 19.6195H151.495L157.145 5.49219H154.485Z" fill="white"/>
<path d="M24.092 0.245117V7.95436L12.046 0.245117L0 7.95436V20.0004L12.046 12.2911L24.092 20.0004V12.2911L36.138 20.0004V7.95436L24.092 0.245117Z" fill="#3F9CFB"/>
</g>
<defs>
<clipPath id="clip0_151_1518">
<rect width="157.138" height="20" fill="white"/>
</clipPath>
</defs>
</svg>
